<svg id="visual" viewBox="0 0 960 540" width="960" height="540" xmlns="http://www.w3.org/2000/svg" xmlns:xlink="http://www.w3.org/1999/xlink" version="1.1"><path d="M0 152L87 136L175 114L262 147L349 152L436 87L524 77L611 82L698 114L785 131L873 158L960 228L960 0L873 0L785 0L698 0L611 0L524 0L436 0L349 0L262 0L175 0L87 0L0 0Z" fill="#485fc7"></path><path d="M0 239L87 233L175 190L262 244L349 212L436 131L524 174L611 163L698 212L785 174L873 244L960 266L960 226L873 156L785 129L698 112L611 80L524 75L436 85L349 150L262 145L175 112L87 134L0 150Z" fill="#7a5ec0"></path><path d="M0 330L87 422L175 406L262 368L349 384L436 341L524 379L611 336L698 374L785 390L873 379L960 390L960 264L873 242L785 172L698 210L611 161L524 172L436 129L349 210L262 242L175 188L87 231L0 237Z" fill="#9a5eb6"></path><path d="M0 422L87 492L175 498L262 444L349 471L436 411L524 449L611 411L698 428L785 476L873 444L960 438L960 388L873 377L785 388L698 372L611 334L524 377L436 339L349 382L262 366L175 404L87 420L0 328Z" fill="#b261ac"></path><path d="M0 541L87 541L175 541L262 541L349 541L436 541L524 541L611 541L698 541L785 541L873 541L960 541L960 436L873 442L785 474L698 426L611 409L524 447L436 409L349 469L262 442L175 496L87 490L0 420Z" fill="#c467a2"></path></svg>