<svg id="visual" viewBox="0 0 960 540" width="960" height="540" xmlns="http://www.w3.org/2000/svg" xmlns:xlink="http://www.w3.org/1999/xlink" version="1.1"><rect x="0" y="0" width="960" height="540" fill="#485fc7"></rect><path d="M0 293L60 293L60 420L120 420L120 355L180 355L180 296L240 296L240 342L300 342L300 271L360 271L360 424L420 424L420 310L480 310L480 309L540 309L540 334L600 334L600 433L660 433L660 301L720 301L720 283L780 283L780 361L840 361L840 398L900 398L900 408L960 408L960 352L960 541L960 541L900 541L900 541L840 541L840 541L780 541L780 541L720 541L720 541L660 541L660 541L600 541L600 541L540 541L540 541L480 541L480 541L420 541L420 541L360 541L360 541L300 541L300 541L240 541L240 541L180 541L180 541L120 541L120 541L60 541L60 541L0 541Z" fill="#c467a2" stroke-linecap="square" stroke-linejoin="miter"></path></svg>